<?xml version="1.0" encoding="UTF-8" standalone="no"?>
<svg
   xmlns:dc="http://purl.org/dc/elements/1.1/"
   xmlns:cc="http://creativecommons.org/ns#"
   xmlns:rdf="http://www.w3.org/1999/02/22-rdf-syntax-ns#"
   xmlns:svg="http://www.w3.org/2000/svg"
   xmlns="http://www.w3.org/2000/svg"
   xmlns:sodipodi="http://sodipodi.sourceforge.net/DTD/sodipodi-0.dtd"
   xmlns:inkscape="http://www.inkscape.org/namespaces/inkscape"
   version="1.1"
   x="0px"
   y="0px"
   viewBox="0 0 97.908676 59.1375"
   enable-background="new 0 0 100 100"
   xml:space="preserve"
   id="svg26"
   sodipodi:docname="noun_Media_166644.svg"
   width="97.908676"
   height="59.137501"
   inkscape:version="1.0.2 (e86c870879, 2021-01-15, custom)"><metadata
     id="metadata32"><rdf:RDF><cc:Work
         rdf:about=""><dc:format>image/svg+xml</dc:format><dc:type
           rdf:resource="http://purl.org/dc/dcmitype/StillImage" /></cc:Work></rdf:RDF></metadata><defs
     id="defs30" /><sodipodi:namedview
     pagecolor="#ffffff"
     bordercolor="#666666"
     borderopacity="1"
     objecttolerance="10"
     gridtolerance="10"
     guidetolerance="10"
     inkscape:pageopacity="0"
     inkscape:pageshadow="2"
     inkscape:window-width="2560"
     inkscape:window-height="1377"
     id="namedview28"
     showgrid="false"
     inkscape:zoom="8.064"
     inkscape:cx="32.007416"
     inkscape:cy="20.413416"
     inkscape:window-x="1912"
     inkscape:window-y="-8"
     inkscape:window-maximized="1"
     inkscape:current-layer="svg26"
     inkscape:document-rotation="0" /><g
     transform="matrix(0.13985577,0,0,-0.1432582,-21.001292,1300.868)"
     id="g20"><path
       d="m 467.5,9080.3 c -2.1,-0.6 -3.7,-1.9 -4.6,-3.7 -0.7,-1.4 -0.8,-6.7 -0.8,-48.2 v -46.6 h 7.1 7.1 v 23.6 23.6 h 105.1 105.1 v -47.8 c 0,-26.2 0.1,-47.8 0.4,-47.8 0.2,0 3.2,0.6 6.7,1.4 l 6.4,1.3 0.1,69.7 c 0.1,68.3 0.1,69.7 -0.8,71.2 -0.5,0.9 -1.7,2 -2.6,2.5 -1.5,0.8 -6.9,0.9 -114.9,1 -62.1,0.2 -113.6,0 -114.3,-0.2 z m 32.5,-25.6 v -11.8 h -11.8 -11.8 v 11.8 11.8 h 11.8 11.8 z m 37.4,0 v -11.8 h -11.6 -11.6 v 11.8 11.8 h 11.6 11.6 z m 37.5,0 v -11.8 h -11.6 -11.6 v 11.8 11.8 h 11.6 11.6 z m 37.4,0 v -11.8 h -11.6 -11.6 v 11.8 11.8 h 11.6 11.6 z m 37.4,0 v -11.8 h -11.6 -11.6 v 11.8 11.8 h 11.6 11.6 z m 36.9,0 v -11.8 H 675.3 664 v 11.8 11.8 h 11.3 11.3 z"
       id="path2" /><path
       d="m 546,9008.9 c -1.2,-0.5 -2.5,-1.7 -3.1,-2.6 -1,-1.6 -1,-2.4 -1,-53.2 0,-46.4 0.1,-51.8 0.8,-53.3 1.1,-2.2 3.4,-3.6 6.2,-3.6 2,0 5.2,1.9 43.5,25.4 22.7,14 41.8,25.9 42.4,26.4 2.7,2.4 2.5,7.2 -0.2,9.8 -2.5,2.3 -83.1,51.5 -84.8,51.8 -1.2,0.2 -2.4,0 -3.8,-0.7 z m 41.8,-38.4 c 21.8,-13.4 28.3,-17.6 27.8,-18 -0.7,-0.7 -58.2,-36.1 -59.2,-36.5 -0.6,-0.2 -0.7,5.8 -0.7,37 v 37.3 l 1.9,-1.1 c 1,-0.7 14.6,-9.1 30.2,-18.7 z"
       id="path4" /><path
       d="m 179,8967.7 c -2.5,-0.4 -7.7,-2.3 -10.3,-3.6 -8.4,-4.4 -14.3,-11.9 -17.3,-21.7 l -1.1,-3.6 -0.1,-80.3 c -0.1,-54.6 0,-81.7 0.4,-84.8 1.8,-16.1 13.6,-28.6 29.5,-31.1 2.2,-0.4 49.5,-0.5 149.2,-0.5 120.1,0 146.6,0.1 149.7,0.7 10.8,2 20,8.9 24.9,18.7 3.9,7.9 3.6,2.1 3.6,93.6 0,90.9 0.2,85.5 -3.4,93 -4.6,9.6 -12.9,16.3 -23.3,19 -3.8,1 -5.4,1 -152.1,0.9 -81.8,-0.1 -149,-0.2 -149.7,-0.3 z m 297.5,-14 c 7.9,-1.7 14.6,-8.5 16.1,-16.7 0.7,-3.7 0.7,-159.8 0,-163.7 -1.4,-7.8 -7.3,-14.2 -14.8,-16.2 -2.9,-0.8 -13.8,-0.8 -150.6,-0.7 l -147.5,0.1 -3.3,1.6 c -4.4,2.1 -8.3,6 -10.3,10.3 l -1.6,3.3 -0.1,82.2 c -0.1,81.1 -0.1,82.3 0.9,85.5 2.2,7.1 9,13.2 16.2,14.4 0.7,0.1 66.8,0.2 146.8,0.3 104.9,0.1 146.3,0 148.2,-0.4 z"
       id="path6" /><path
       d="m 194,8929.6 c -0.8,-0.5 -1.9,-1.7 -2.3,-2.6 -0.8,-1.5 -0.9,-5.9 -0.9,-72.1 v -70.5 l 1.1,-1.7 c 0.7,-1 2,-2 3.4,-2.6 2.3,-1 2.3,-1 4.6,0 1.4,0.6 2.8,1.6 3.4,2.6 l 1.1,1.7 v 70.4 c 0,78 0.2,72.6 -3.2,74.7 -1.9,1.4 -5.2,1.4 -7.2,0.1 z"
       id="path8" /><path
       d="m 412.5,8929.8 c -3,-1 -7.1,-5 -8.5,-8.1 -1.1,-2.5 -1.2,-3.1 -1.2,-13.2 0,-12.4 0.3,-13.9 4.3,-18.1 4.3,-4.5 4.4,-4.6 27.4,-4.6 23,0 23.1,0 27.4,4.6 4,4.2 4.3,5.7 4.3,18.1 0,10.1 0,10.7 -1.2,13.2 -1.5,3.2 -5.6,7.1 -8.7,8.2 -3.3,1 -40.6,1 -43.8,-0.1 z m 39.5,-21.6 v -8.4 H 434.5 417 l -0.1,7.9 c 0,4.3 0,8.1 0.1,8.5 0.2,0.5 3.7,0.6 17.6,0.5 l 17.4,-0.1 z"
       id="path10" /><path
       d="m 318.8,8917.6 c -9.3,-1.5 -19.2,-5.4 -26.7,-10.4 -4.8,-3.2 -12.8,-11 -16.2,-15.8 -8.2,-11.4 -12.4,-24.3 -12.4,-38.3 0,-17 6.2,-32.4 17.8,-44.7 16.4,-17.2 40.3,-24.2 63.3,-18.4 25.8,6.5 44.8,28 48.6,54.9 0.7,5.1 0.3,16.2 -0.7,21.2 -2.9,13 -8.7,23.8 -18,33 -9.3,9.3 -19.3,14.8 -32.5,17.8 -5.7,1.2 -17.5,1.6 -23.2,0.7 z m 16.7,-13.8 c 6.7,-0.6 15.6,-4.1 22.5,-8.8 4.5,-3 10.1,-8.9 13.5,-14.1 10,-15.5 11,-34.7 2.5,-51.2 -6.7,-13 -18.1,-22.2 -32.9,-26.2 -3.2,-0.9 -5.2,-1.1 -12.4,-1.1 -10,0 -13.8,0.7 -21.5,4.3 -10.8,5.1 -18.7,12.7 -24,22.9 -4.3,8.3 -6.1,16.5 -5.6,26 0.4,7.1 1.7,12.7 4.5,18.6 3,6.2 5.2,9.5 9.9,14.3 8.3,8.7 19.6,14.2 31.7,15.4 3.7,0.5 5.6,0.5 11.8,-0.1 z"
       id="path12" /><path
       d="m 326,8893.5 c -0.8,-0.3 -2,-1.3 -2.7,-2 -1,-1.1 -1.2,-1.8 -1.2,-4.5 0,-3.1 0.1,-3.2 1.8,-4.8 1.3,-1.2 2.4,-1.7 4.2,-1.9 9.7,-1.1 13.8,-2.8 19,-7.6 4.8,-4.4 8.2,-11.6 8.3,-17 0,-4.7 2.1,-8.2 5.4,-9.1 3.7,-1 8,1.6 8.7,5.3 0.5,2.6 -0.5,10 -1.9,14.1 -2.3,6.8 -5.4,11.6 -10.5,16.5 -6.3,6.1 -13.1,9.6 -21.6,11 -5.4,0.8 -7.6,0.8 -9.5,0 z"
       id="path14" /><path
       d="m 752.2,8933.3 c -49.4,-10.4 -90.3,-19.3 -90.9,-19.7 -0.6,-0.4 -1.6,-1.3 -2,-2.1 -0.8,-1.3 -0.9,-6 -1.1,-81.5 l -0.2,-80.2 -3.3,2.7 c -4.3,3.4 -10.8,6.8 -16.3,8.5 -4.1,1.3 -5,1.4 -13,1.4 -7.9,0 -9,-0.1 -12.9,-1.3 -16.9,-5.2 -28.9,-17.6 -33.7,-35 -0.6,-2.4 -0.8,-5 -0.8,-11.4 0,-7.7 0.1,-8.8 1.4,-12.8 5.4,-17.7 19.6,-30.6 37.5,-33.7 4.6,-0.8 15.7,-0.4 19.9,0.7 17.2,4.7 29.5,17.1 34.6,35.1 l 1.1,3.8 0.1,65 0.1,65 81.2,17.7 c 44.7,9.7 81.4,17.5 81.6,17.3 0.2,-0.2 0.4,-21.2 0.5,-46.7 0.1,-45.5 0.1,-46.3 -0.8,-45.6 -0.5,0.4 -2.5,1.9 -4.3,3.2 -11,8.4 -26.3,11.5 -39.9,8 -4.5,-1.1 -12.1,-4.6 -15.7,-7.3 -13.4,-9.7 -20.8,-25.1 -19.8,-41.4 0.7,-12 5,-21.9 13.3,-30.5 9.3,-9.6 20.8,-14.5 34,-14.5 13,0 24.7,4.9 34,14.3 5.7,5.8 9.7,12.8 12.2,21.7 l 1.1,3.8 0.1,104.4 c 0.1,98.8 0,104.5 -0.7,106.1 -1.2,2.2 -3,3.5 -5.4,3.8 -1.5,0.1 -32.1,-6.2 -91.9,-18.8 z m 84.1,-21.2 v -24.4 l -1.1,-0.2 c -3,-0.7 -159.4,-34.7 -161,-35 l -1.8,-0.3 0.1,25 0.1,25 81,17.1 c 44.6,9.4 81.4,17.1 81.9,17.1 0.7,0.1 0.8,-1.4 0.8,-24.3 z m -27.8,-133.7 c 10,-1.8 19.4,-8.9 23.8,-17.9 2.6,-5.2 3.5,-9.4 3.6,-14.8 0,-5.9 -0.8,-9.4 -3.4,-15 -3.8,-8 -11.2,-14.4 -19.8,-17.2 -6.8,-2.3 -16.7,-1.7 -23.5,1.2 -9.2,4.1 -16.7,13 -19.2,22.8 -1.1,4.4 -0.7,13.9 0.7,18.3 1.6,4.8 4.4,9.2 8.5,13.3 7.7,7.8 18.7,11.3 29.3,9.3 z m -176.8,-30.7 c 9.8,-2.1 18.5,-9 23,-18.2 5.5,-11.5 4.2,-24.4 -3.7,-35.1 -5.7,-7.7 -16.2,-12.9 -26.1,-12.9 -10.2,0 -20.8,5.1 -26.7,12.9 -7.8,10.3 -9.2,23.6 -3.6,35.1 3.5,7.2 8.7,12.3 16.1,15.9 6.2,2.9 13.9,3.8 21,2.3 z"
       id="path16" /><path
       d="m 521.7,8874 v -6.9 h 7.9 7.9 v -11.6 -11.5 h -7.9 -7.9 v -7.1 -7.1 h 61.5 61.5 v 7.1 7.1 h -9.1 -9.1 v 11.6 11.6 h 9.1 9.1 v 6.9 6.9 h -61.5 -61.5 z m 53.2,-18.5 V 8844 h -11.6 -11.6 v 11.6 11.6 h 11.6 11.6 z m 37.4,0 V 8844 h -11.6 -11.6 v 11.6 11.6 h 11.6 11.6 z"
       id="path18" /></g></svg>
