<svg width="25" height="24" viewBox="0 0 25 24" fill="none" xmlns="http://www.w3.org/2000/svg">
<path fill-rule="evenodd" clip-rule="evenodd" d="M5.19465 16.8817C5.5198 17.0557 5.91435 17.0366 6.2212 16.832L12.2212 12.832C12.4994 12.6466 12.6665 12.3344 12.6665 12C12.6665 11.6656 12.4994 11.3534 12.2212 11.1679L6.2212 7.16795C5.91435 6.96338 5.5198 6.9443 5.19465 7.11832C4.86949 7.29234 4.6665 7.6312 4.6665 8V16C4.6665 16.3688 4.86949 16.7077 5.19465 16.8817ZM6.6665 14.1315V9.86852L9.86373 12L6.6665 14.1315Z" fill="#0D0D0D"/>
<path fill-rule="evenodd" clip-rule="evenodd" d="M13.1946 16.8817C13.5198 17.0557 13.9143 17.0366 14.2212 16.832L20.2212 12.832C20.4994 12.6466 20.6665 12.3344 20.6665 12C20.6665 11.6656 20.4994 11.3534 20.2212 11.1679L14.2212 7.16795C13.9143 6.96338 13.5198 6.9443 13.1946 7.11832C12.8695 7.29234 12.6665 7.6312 12.6665 8V16C12.6665 16.3688 12.8695 16.7077 13.1946 16.8817ZM14.6665 14.1315V9.86852L17.8637 12L14.6665 14.1315Z" fill="#0D0D0D"/>
</svg>
