<svg width="24" height="24" viewBox="0 0 24 24" fill="none" xmlns="http://www.w3.org/2000/svg">
<path d="M20 13.2001C20 14.7428 19.5308 16.2508 18.6518 17.5335C17.7727 18.8162 16.5233 19.816 15.0615 20.4063C13.5997 20.9967 11.9911 21.1511 10.4393 20.8502C8.88743 20.5492 7.46197 19.8063 6.34315 18.7155C5.22433 17.6247 4.4624 16.2348 4.15372 14.7218C3.84504 13.2088 4.00347 11.6404 4.60897 10.2152C5.21447 8.78993 6.23985 7.57175 7.55544 6.71468C8.87103 5.85761 10.4178 5.40015 12 5.40015" stroke="black" stroke-width="2" stroke-linecap="round"/>
<path d="M11.3838 3L13.8453 5.39999L11.3838 7.79997" stroke="black" stroke-width="2" stroke-linecap="round" stroke-linejoin="round"/>
<path d="M9.16406 16V11.4766H9.09375L7.71094 12.4375V11.375L9.16797 10.3633H10.3438V16H9.16406ZM14.0469 16.1445C13.5833 16.1445 13.1836 16.0247 12.8477 15.7852C12.5143 15.543 12.2578 15.2005 12.0781 14.7578C11.8984 14.3151 11.8086 13.7904 11.8086 13.1836V13.1758C11.8086 12.5664 11.8984 12.0417 12.0781 11.6016C12.2578 11.1589 12.5143 10.8177 12.8477 10.5781C13.1836 10.3385 13.5833 10.2188 14.0469 10.2188C14.513 10.2188 14.9128 10.3385 15.2461 10.5781C15.5794 10.8177 15.8359 11.1589 16.0156 11.6016C16.1953 12.0417 16.2852 12.5664 16.2852 13.1758V13.1836C16.2852 13.7904 16.1953 14.3151 16.0156 14.7578C15.8359 15.2005 15.5794 15.543 15.2461 15.7852C14.9128 16.0247 14.513 16.1445 14.0469 16.1445ZM14.0469 15.2109C14.2708 15.2109 14.4596 15.1302 14.6133 14.9688C14.7695 14.8073 14.888 14.5755 14.9688 14.2734C15.0521 13.9714 15.0938 13.6081 15.0938 13.1836V13.1758C15.0938 12.7487 15.0521 12.3854 14.9688 12.0859C14.888 11.7839 14.7695 11.5534 14.6133 11.3945C14.4596 11.2331 14.2708 11.1523 14.0469 11.1523C13.8255 11.1523 13.6367 11.2331 13.4805 11.3945C13.3268 11.5534 13.2083 11.7839 13.125 12.0859C13.0443 12.3854 13.0039 12.7487 13.0039 13.1758V13.1836C13.0039 13.6081 13.0443 13.9714 13.125 14.2734C13.2083 14.5755 13.3268 14.8073 13.4805 14.9688C13.6367 15.1302 13.8255 15.2109 14.0469 15.2109Z" fill="black"/>
</svg>
