<svg width="24" height="24" viewBox="0 0 24 24" fill="none" xmlns="http://www.w3.org/2000/svg">
<g id="File /open_new">
<path id="Layer01" d="M2 5C2 3.34315 3.34315 2 5 2H11C11.5523 2 12 2.44772 12 3C12 3.55228 11.5523 4 11 4H5C4.44772 4 4 4.44772 4 5V19C4 19.5523 4.44772 20 5 20H19C19.5523 20 20 19.5523 20 19V13.125C20 12.5727 20.4477 12.125 21 12.125C21.5523 12.125 22 12.5727 22 13.125V19C22 20.6569 20.6569 22 19 22H5C3.34315 22 2 20.6569 2 19V5Z" fill="#0D0D0D"/>
<path id="Layer02" fill-rule="evenodd" clip-rule="evenodd" d="M15 4C14.4477 4 14 3.55228 14 3C14 2.44772 14.4477 2 15 2H21C21.5523 2 22 2.44772 22 3V9C22 9.55228 21.5523 10 21 10C20.4477 10 20 9.55228 20 9V5.41421L8.76961 16.6446C8.37908 17.0351 7.74592 17.0351 7.35539 16.6446C6.96487 16.2541 6.96487 15.6209 7.35539 15.2304L18.5858 4H15Z" fill="#0D0D0D"/>
</g>
</svg>
