<svg width="25" height="24" viewBox="0 0 25 24" fill="none" xmlns="http://www.w3.org/2000/svg">
<path fill-rule="evenodd" clip-rule="evenodd" d="M8.3335 7C8.3335 6.44772 8.66928 6 9.0835 6H10.5835C10.9977 6 11.3335 6.44772 11.3335 7V17C11.3335 17.5523 10.9977 18 10.5835 18H9.0835C8.66928 18 8.3335 17.5523 8.3335 17V7Z" fill="#0D0D0D"/>
<path fill-rule="evenodd" clip-rule="evenodd" d="M13.3335 7C13.3335 6.44772 13.6693 6 14.0835 6H15.5835C15.9977 6 16.3335 6.44772 16.3335 7V17C16.3335 17.5523 15.9977 18 15.5835 18H14.0835C13.6693 18 13.3335 17.5523 13.3335 17V7Z" fill="#0D0D0D"/>
</svg>
