<svg width="24" height="24" viewBox="0 0 24 24" fill="none" xmlns="http://www.w3.org/2000/svg">
<path fill-rule="evenodd" clip-rule="evenodd" d="M19.4719 16.8817C19.1467 17.0557 18.7522 17.0366 18.4453 16.832L12.4453 12.832C12.1671 12.6466 12 12.3344 12 12C12 11.6656 12.1671 11.3534 12.4453 11.1679L18.4453 7.16795C18.7522 6.96338 19.1467 6.9443 19.4719 7.11832C19.797 7.29234 20 7.6312 20 8V16C20 16.3688 19.797 16.7077 19.4719 16.8817ZM18 14.1315V9.86852L14.8028 12L18 14.1315Z" fill="#0D0D0D"/>
<path fill-rule="evenodd" clip-rule="evenodd" d="M11.4719 16.8817C11.1467 17.0557 10.7522 17.0366 10.4453 16.832L4.4453 12.832C4.1671 12.6466 4 12.3344 4 12C4 11.6656 4.1671 11.3534 4.4453 11.1679L10.4453 7.16795C10.7522 6.96338 11.1467 6.9443 11.4719 7.11832C11.797 7.29234 12 7.6312 12 8V16C12 16.3688 11.797 16.7077 11.4719 16.8817ZM10 14.1315V9.86852L6.80278 12L10 14.1315Z" fill="#0D0D0D"/>
</svg>
