<svg width="24" height="24" viewBox="0 0 24 24" fill="none" xmlns="http://www.w3.org/2000/svg">
<path d="M7 10C7 10.5523 6.55228 11 6 11C5.44772 11 5 10.5523 5 10C5 9.44772 5.44772 9 6 9C6.55228 9 7 9.44772 7 10Z" fill="black"/>
<path d="M7 14C7 14.5523 6.55228 15 6 15C5.44772 15 5 14.5523 5 14C5 13.4477 5.44772 13 6 13C6.55228 13 7 13.4477 7 14Z" fill="black"/>
<path d="M13 6L9 18" stroke="black" stroke-width="2" stroke-linecap="round"/>
<path d="M18 6L14 18" stroke="black" stroke-width="2" stroke-linecap="round"/>
</svg>
