<svg width="25" height="24" viewBox="0 0 25 24" fill="none" xmlns="http://www.w3.org/2000/svg">
<path fill-rule="evenodd" clip-rule="evenodd" d="M9.98759 5.1163C11.1732 3.91192 13.2226 4.75139 13.2226 6.44139V17.5587C13.2226 19.2487 11.1732 20.0882 9.98759 18.8838L6.74406 15.5888C6.72318 15.5675 6.69465 15.5556 6.66488 15.5556H4.33371C3.29051 15.5556 2.44482 14.7099 2.44482 13.6667L2.44482 10.3334C2.44482 9.29016 3.29051 8.44448 4.33371 8.44448H6.66488C6.69465 8.44448 6.72318 8.43253 6.74406 8.41131L9.98759 5.1163ZM11.3101 6.32964C11.2992 6.3316 11.2809 6.33666 11.2545 6.36344L8.011 9.65845C7.65595 10.0191 7.171 10.2223 6.66488 10.2223H4.33371C4.27235 10.2223 4.2226 10.272 4.2226 10.3334L4.2226 13.6667C4.2226 13.7281 4.27235 13.7778 4.33371 13.7778H6.66488C7.171 13.7778 7.65595 13.9809 8.011 14.3416L11.2545 17.6366C11.2809 17.6634 11.2992 17.6685 11.3101 17.6704C11.326 17.6733 11.3496 17.6723 11.3758 17.6615C11.4021 17.6507 11.4196 17.6349 11.4289 17.6218C11.4353 17.6127 11.4448 17.5963 11.4448 17.5587V6.44139C11.4448 6.40381 11.4353 6.38737 11.4289 6.37829C11.4196 6.36513 11.4021 6.34932 11.3758 6.33857C11.3496 6.32781 11.326 6.3268 11.3101 6.32964Z" fill="#0D0D0D"/>
<path fill-rule="evenodd" clip-rule="evenodd" d="M19.0329 4.37143C18.6857 4.0243 18.1229 4.0243 17.7758 4.37143C17.4287 4.71857 17.4287 5.28138 17.7758 5.62851C21.3339 9.18662 21.3339 14.9555 17.7758 18.5136C17.4287 18.8607 17.4287 19.4235 17.7758 19.7706C18.1229 20.1178 18.6857 20.1178 19.0329 19.7706C23.2852 15.5183 23.2852 8.62381 19.0329 4.37143ZM16.2044 7.37146C15.8573 7.02433 15.2945 7.02433 14.9474 7.37146C14.6002 7.71859 14.6002 8.28141 14.9474 8.62854C16.9434 10.6246 16.9434 13.8607 14.9474 15.8567C14.6002 16.2039 14.6002 16.7667 14.9474 17.1138C15.2945 17.461 15.8573 17.461 16.2044 17.1138C18.8947 14.4235 18.8947 10.0617 16.2044 7.37146Z" fill="#0D0D0D"/>
</svg>
