<svg width="24" height="24" viewBox="0 0 24 24" fill="none" xmlns="http://www.w3.org/2000/svg">
<path fill-rule="evenodd" clip-rule="evenodd" d="M9.6541 5.1163C10.8397 3.91192 12.8891 4.75139 12.8891 6.44139V17.5587C12.8891 19.2487 10.8397 20.0882 9.6541 18.8838L6.41057 15.5888C6.38968 15.5675 6.36116 15.5556 6.33138 15.5556H4.00022C2.95701 15.5556 2.11133 14.7099 2.11133 13.6667L2.11133 10.3334C2.11133 9.29016 2.95701 8.44448 4.00022 8.44448H6.33138C6.36116 8.44448 6.38968 8.43253 6.41057 8.41131L9.6541 5.1163ZM10.9766 6.32964C10.9657 6.3316 10.9474 6.33666 10.921 6.36344L7.67751 9.65845C7.32245 10.0191 6.8375 10.2223 6.33138 10.2223H4.00022C3.93885 10.2223 3.88911 10.272 3.88911 10.3334L3.88911 13.6667C3.88911 13.7281 3.93885 13.7778 4.00022 13.7778H6.33138C6.8375 13.7778 7.32245 13.9809 7.67751 14.3416L10.921 17.6366C10.9474 17.6634 10.9657 17.6685 10.9766 17.6704C10.9925 17.6733 11.0161 17.6723 11.0423 17.6615C11.0686 17.6507 11.0861 17.6349 11.0954 17.6218C11.1018 17.6127 11.1113 17.5963 11.1113 17.5587V6.44139C11.1113 6.40381 11.1018 6.38737 11.0954 6.37829C11.0861 6.36513 11.0686 6.34932 11.0423 6.33857C11.0161 6.32781 10.9925 6.3268 10.9766 6.32964Z" fill="#0D0D0D"/>
<path fill-rule="evenodd" clip-rule="evenodd" d="M15.7071 15.7071C15.3166 16.0976 14.6834 16.0976 14.2929 15.7071C13.9024 15.3166 13.9024 14.6834 14.2929 14.2929L16.5858 12L14.2929 9.70711C13.9024 9.31658 13.9024 8.68342 14.2929 8.29289C14.6834 7.90237 15.3166 7.90237 15.7071 8.29289L18 10.5858L20.2929 8.29289C20.6834 7.90237 21.3166 7.90237 21.7071 8.29289C22.0976 8.68342 22.0976 9.31658 21.7071 9.70711L19.4142 12L21.7071 14.2929C22.0976 14.6834 22.0976 15.3166 21.7071 15.7071C21.3166 16.0976 20.6834 16.0976 20.2929 15.7071L18 13.4142L15.7071 15.7071Z" fill="#0D0D0D"/>
</svg>
