<svg width="24" height="24" viewBox="0 0 24 24" fill="none" xmlns="http://www.w3.org/2000/svg">
<path fill-rule="evenodd" clip-rule="evenodd" d="M15.1213 10C14.502 10 14 9.49797 14 8.87868L14 4.12132C14 3.50203 14.502 3 15.1213 3C15.7406 3 16.2426 3.50203 16.2426 4.12132V6.17158L18.3726 4.04163C18.8105 3.60372 19.5205 3.60372 19.9584 4.04163C20.3963 4.47953 20.3963 5.18951 19.9584 5.62741L17.8284 7.75736L19.8787 7.75736C20.498 7.75736 21 8.25939 21 8.87868C21 9.49797 20.498 10 19.8787 10L15.1213 10ZM8.87868 21C8.25939 21 7.75736 20.498 7.75736 19.8787V17.8284L5.10659 20.4792C4.66869 20.9171 3.95871 20.9171 3.52081 20.4792C3.0829 20.0413 3.0829 19.3313 3.52081 18.8934L6.17157 16.2426H4.12132C3.50203 16.2426 3 15.7406 3 15.1213C3 14.502 3.50203 14 4.12132 14L8.87868 14C9.49797 14 10 14.502 10 15.1213L10 19.8787C10 20.498 9.49797 21 8.87868 21Z" fill="#0D0D0D"/>
<path fill-rule="evenodd" clip-rule="evenodd" d="M3.00002 8.87867C3.00002 8.25939 3.50205 7.75735 4.12134 7.75735H6.1716L4.04166 5.62741C3.60375 5.1895 3.60375 4.47952 4.04166 4.04162C4.47956 3.60372 5.18954 3.60372 5.62744 4.04162L7.75737 6.17155V4.12131C7.75737 3.50203 8.25941 2.99999 8.87869 2.99999C9.49798 2.99999 10 3.50203 10 4.12131L10 8.87867C10 9.49796 9.49798 9.99999 8.87869 9.99999L4.12134 9.99999C3.50205 9.99999 3.00002 9.49796 3.00002 8.87867ZM15.1213 21C14.502 21 14 20.498 14 19.8787V15.1213C14 14.502 14.502 14 15.1213 14L19.8787 14C20.498 14 21 14.502 21 15.1213C21 15.7406 20.498 16.2426 19.8787 16.2426H17.8284L20.4792 18.8934C20.9171 19.3313 20.9171 20.0413 20.4792 20.4792C20.0413 20.9171 19.3313 20.9171 18.8934 20.4792L16.2426 17.8284V19.8787C16.2426 20.498 15.7406 21 15.1213 21Z" fill="#0D0D0D"/>
</svg>
