<svg width="24" height="24" viewBox="0 0 24 24" fill="none" xmlns="http://www.w3.org/2000/svg">
<path fill-rule="evenodd" clip-rule="evenodd" d="M19.071 3.92892C19.6233 3.92892 20.071 4.37664 20.071 4.92892V9.17157C20.071 9.72385 19.6233 10.1716 19.071 10.1716C18.5188 10.1716 18.071 9.72385 18.071 9.17157V7.34314L16.1716 9.24263C15.781 9.63315 15.1479 9.63315 14.7573 9.24263C14.3668 8.8521 14.3668 8.21894 14.7573 7.82841L16.6568 5.92892L14.8284 5.92892C14.2761 5.92892 13.8284 5.48121 13.8284 4.92892C13.8284 4.37664 14.2761 3.92892 14.8284 3.92892H19.071ZM4.92892 13.8284C5.48121 13.8284 5.92892 14.2761 5.92892 14.8284V16.6569L8.29289 14.2929C8.68342 13.9024 9.31658 13.9024 9.70711 14.2929C10.0976 14.6834 10.0976 15.3166 9.70711 15.7071L7.34314 18.0711L9.17157 18.0711C9.72385 18.0711 10.1716 18.5188 10.1716 19.0711C10.1716 19.6234 9.72385 20.0711 9.17157 20.0711H4.92892C4.37664 20.0711 3.92892 19.6234 3.92892 19.0711V14.8284C3.92892 14.2761 4.37664 13.8284 4.92892 13.8284Z" fill="#0D0D0D"/>
<path fill-rule="evenodd" clip-rule="evenodd" d="M10.1716 4.92892C10.1716 5.48121 9.72388 5.92892 9.1716 5.92892L7.34316 5.92892L9.24265 7.82841C9.63318 8.21894 9.63318 8.8521 9.24265 9.24263C8.85213 9.63315 8.21896 9.63315 7.82844 9.24263L5.92896 7.34314V9.17157C5.92896 9.72385 5.48124 10.1716 4.92896 10.1716C4.37667 10.1716 3.92896 9.72385 3.92896 9.17157V4.92892C3.92896 4.37664 4.37667 3.92892 4.92896 3.92892H9.1716C9.72388 3.92892 10.1716 4.37664 10.1716 4.92892ZM19.0711 13.8284C19.6234 13.8284 20.0711 14.2761 20.0711 14.8284V19.0711C20.0711 19.6234 19.6234 20.0711 19.0711 20.0711H14.8284C14.2761 20.0711 13.8284 19.6234 13.8284 19.0711C13.8284 18.5188 14.2761 18.0711 14.8284 18.0711H16.6569L14.2929 15.7071C13.9024 15.3166 13.9024 14.6834 14.2929 14.2929C14.6834 13.9024 15.3166 13.9024 15.7071 14.2929L18.0711 16.6569V14.8284C18.0711 14.2761 18.5188 13.8284 19.0711 13.8284Z" fill="#0D0D0D"/>
</svg>
